<?xml version="1.0" encoding="UTF-8" standalone="no"?>
<!DOCTYPE svg PUBLIC "-//W3C//DTD SVG 1.1//EN" "http://www.w3.org/Graphics/SVG/1.1/DTD/svg11.dtd">
<svg width="100%" height="100%" viewBox="0 0 152 153" version="1.1" xmlns="http://www.w3.org/2000/svg" xmlns:xlink="http://www.w3.org/1999/xlink" xml:space="preserve" xmlns:serif="http://www.serif.com/" style="fill-rule:evenodd;clip-rule:evenodd;stroke-linejoin:round;stroke-miterlimit:2;">
    <g transform="matrix(1,0,0,1,-522.848,-447.297)">
        <g id="path2" transform="matrix(0.585938,0,0,0.585938,0,0)">
            <path d="M1024.97,763.428C1075.31,762.148 1121.17,791.474 1144.15,835.45C1147.68,842.215 1154.28,854.526 1145.74,860.127C1126.23,872.914 1120.71,842.627 1111.31,832.163C1076.86,789.788 1019.14,773.792 972.073,808.985C979.322,815.941 986.442,823.029 993.431,830.246C1009.92,815.123 1025.18,807.235 1046.22,821.441C1051.08,824.43 1056.02,838.237 1050.83,842.537C1039.2,852.18 1023.8,835.153 1013.69,846.125C1007.35,852.999 966.27,888.49 969.113,896.422C978.216,913.074 1001.77,933.738 1016.34,945.316C1027.33,954.045 1040.83,932.263 1055.23,927.746C1068.28,928.728 1086.29,951.235 1096.06,960.675C1113.61,947.265 1119.17,933.558 1130.1,915.708C1131.79,912.958 1134.15,911.651 1137.4,911.424C1140.86,911.192 1144.28,912.299 1146.94,914.516C1166.51,931.047 1119.61,973.42 1110.23,983.492C1087.29,1008.11 1066.13,1021.64 1031.82,1024.02C996.713,1026.76 962.003,1015.07 935.701,991.645C910.135,969.013 893.996,937.843 892.37,903.73C891.71,875.592 898.613,845.585 918.484,824.759C953.827,787.717 971.402,766.049 1024.97,763.428ZM952.107,827.629C929.975,850.21 918.121,864.857 918.274,898.486C918.613,973.228 1009.6,1026.34 1072.57,982.417L1074.57,980.335C1074.17,975.11 1058.76,961.897 1054.55,957.957C1012.83,998.184 985.142,951.088 955.417,923.542C947.137,915.869 942.275,905.042 942.746,893.931C943.259,872.682 962.314,862.352 973.543,848.07C969.68,844.195 955.815,829.7 952.107,827.629Z" style="fill:rgb(35,37,43);"/>
        </g>
        <g id="path22" transform="matrix(0.585938,0,0,0.585938,0,0)">
            <path d="M1070.89,852.941C1084.62,852.648 1097.54,870.279 1105.32,880.667C1114.38,892.753 1111.38,906.656 1098.58,914.857C1081.74,917.233 1077.55,907.485 1081.45,892.679C1069.3,881.472 1047.82,866.017 1070.89,852.941Z" style="fill:rgb(35,37,43);fill-rule:nonzero;"/>
        </g>
    </g>
</svg>
